<svg width="33" height="33" viewBox="0 0 33 33" fill="none" xmlns="http://www.w3.org/2000/svg">
<g clip-path="url(#clip0_41_2008)" filter="url(#filter0_d_41_2008)">
<path d="M25.875 11.9792V15.625H22.75C21.9212 15.625 21.1263 15.9542 20.5403 16.5403C19.9542 17.1263 19.625 17.9212 19.625 18.75V21.875H8.6875C8.2731 21.875 7.87567 21.7104 7.58265 21.4174C7.28962 21.1243 7.125 20.7269 7.125 20.3125V4.6875C7.125 4.2731 7.28962 3.87567 7.58265 3.58265C7.87567 3.28962 8.2731 3.125 8.6875 3.125H18.0625C18.4769 3.125 18.8743 2.96038 19.1674 2.66735C19.4604 2.37433 19.625 1.9769 19.625 1.5625C19.625 1.1481 19.4604 0.750671 19.1674 0.457646C18.8743 0.16462 18.4769 0 18.0625 0L8.6875 0C7.4443 0 6.25201 0.49386 5.37294 1.37294C4.49386 2.25201 4 3.4443 4 4.6875L4 20.3125C4 21.5557 4.49386 22.748 5.37294 23.6271C6.25201 24.5061 7.4443 25 8.6875 25H21.1708C22.4135 25 23.6054 24.5066 24.4844 23.6281L27.6271 20.4854C28.5059 19.6066 28.9997 18.4147 29 17.1719V11.9792C29 11.5648 28.8354 11.1673 28.5424 10.8743C28.2493 10.5813 27.8519 10.4167 27.4375 10.4167C27.0231 10.4167 26.6257 10.5813 26.3326 10.8743C26.0396 11.1673 25.875 11.5648 25.875 11.9792Z" fill="#363636"/>
<path d="M22.5343 1.8677L9.51346 14.8885C9.3181 15.0838 9.20831 15.3488 9.20825 15.625V18.75C9.20825 19.0263 9.318 19.2912 9.51335 19.4866C9.7087 19.6819 9.97365 19.7917 10.2499 19.7917H13.3749C13.6512 19.7916 13.9161 19.6818 14.1114 19.4865L26.9562 6.64166C27.3908 6.22254 27.7103 5.69865 27.884 5.12036C28.0577 4.54207 28.0796 3.92882 27.9478 3.33958C27.8004 2.79156 27.5119 2.29175 27.1111 1.88994C26.7103 1.48813 26.2113 1.19834 25.6636 1.04945C25.116 0.900552 24.5389 0.897748 23.9899 1.04131C23.4408 1.18488 22.9389 1.46981 22.5343 1.8677V1.8677Z" fill="#363636"/>
</g>
<defs>
<filter id="filter0_d_41_2008" x="0" y="0" width="33" height="33" filterUnits="userSpaceOnUse" color-interpolation-filters="sRGB">
<feFlood flood-opacity="0" result="BackgroundImageFix"/>
<feColorMatrix in="SourceAlpha" type="matrix" values="0 0 0 0 0 0 0 0 0 0 0 0 0 0 0 0 0 0 127 0" result="hardAlpha"/>
<feOffset dy="4"/>
<feGaussianBlur stdDeviation="2"/>
<feComposite in2="hardAlpha" operator="out"/>
<feColorMatrix type="matrix" values="0 0 0 0 0 0 0 0 0 0 0 0 0 0 0 0 0 0 0.25 0"/>
<feBlend mode="normal" in2="BackgroundImageFix" result="effect1_dropShadow_41_2008"/>
<feBlend mode="normal" in="SourceGraphic" in2="effect1_dropShadow_41_2008" result="shape"/>
</filter>
<clipPath id="clip0_41_2008">
<rect width="25" height="25" fill="white" transform="translate(4)"/>
</clipPath>
</defs>
</svg>
