<svg width="64" height="64" viewBox="0 0 64 64" fill="none" xmlns="http://www.w3.org/2000/svg">
<g clip-path="url(#clip0_13_1876)">
<path d="M49.968 10.6987L43.32 2.07733C42.8218 1.43099 42.1819 0.907592 41.4496 0.547447C40.7173 0.187302 39.9121 1.32664e-05 39.096 0L24.904 0C24.0884 0.000421156 23.2837 0.187906 22.5519 0.548035C21.8201 0.908165 21.1806 1.43134 20.6827 2.07733L14.032 10.6987C10.2587 10.8621 6.69395 12.4748 4.08007 15.201C1.46618 17.9271 0.00470269 21.5565 0 25.3333L0 49.3333C0.00423512 53.2219 1.55083 56.9499 4.30045 59.6996C7.05006 62.4492 10.7781 63.9958 14.6667 64H49.3333C53.2219 63.9958 56.9499 62.4492 59.6996 59.6996C62.4492 56.9499 63.9958 53.2219 64 49.3333V25.3333C63.9953 21.5565 62.5338 17.9271 59.9199 15.201C57.3061 12.4748 53.7413 10.8621 49.968 10.6987ZM56 49.3333C56 51.1014 55.2976 52.7971 54.0474 54.0474C52.7971 55.2976 51.1014 56 49.3333 56H14.6667C12.8986 56 11.2029 55.2976 9.95262 54.0474C8.70238 52.7971 8 51.1014 8 49.3333V25.3333C8 23.5652 8.70238 21.8695 9.95262 20.6193C11.2029 19.369 12.8986 18.6667 14.6667 18.6667H49.3333C51.1014 18.6667 52.7971 19.369 54.0474 20.6193C55.2976 21.8695 56 23.5652 56 25.3333V49.3333Z" fill="#363636"/>
<path d="M32.0003 22.6669C29.0995 22.6669 26.2638 23.5271 23.8519 25.1386C21.44 26.7502 19.5601 29.0409 18.4501 31.7208C17.34 34.4008 17.0495 37.3498 17.6154 40.1948C18.1814 43.0399 19.5782 45.6532 21.6294 47.7044C23.6806 49.7556 26.2939 51.1524 29.139 51.7184C31.984 52.2843 34.933 51.9938 37.613 50.8837C40.2929 49.7736 42.5836 47.8938 44.1951 45.4819C45.8067 43.07 46.6669 40.2343 46.6669 37.3335C46.6627 33.445 45.1161 29.7169 42.3665 26.9673C39.6169 24.2177 35.8888 22.6711 32.0003 22.6669V22.6669ZM32.0003 44.0002C30.6817 44.0002 29.3928 43.6092 28.2965 42.8766C27.2001 42.1441 26.3457 41.1029 25.8411 39.8847C25.3365 38.6666 25.2045 37.3261 25.4617 36.0329C25.7189 34.7397 26.3539 33.5518 27.2862 32.6195C28.2186 31.6871 29.4065 31.0522 30.6997 30.795C31.9929 30.5377 33.3333 30.6697 34.5515 31.1743C35.7697 31.6789 36.8109 32.5334 37.5434 33.6297C38.2759 34.726 38.6669 36.015 38.6669 37.3335C38.6669 39.1016 37.9646 40.7973 36.7143 42.0476C35.4641 43.2978 33.7684 44.0002 32.0003 44.0002V44.0002Z" fill="#363636"/>
</g>
<defs>
<clipPath id="clip0_13_1876">
<rect width="64" height="64" fill="white"/>
</clipPath>
</defs>
</svg>
