<svg width="64" height="64" viewBox="0 0 64 64" fill="none" xmlns="http://www.w3.org/2000/svg">
<g clip-path="url(#clip0_13_1921)">
<path d="M49.3333 0H14.6667C10.7781 0.00423512 7.05006 1.55083 4.30045 4.30045C1.55083 7.05006 0.00423512 10.7781 0 14.6667L0 49.3333C0.00423512 53.2219 1.55083 56.9499 4.30045 59.6996C7.05006 62.4492 10.7781 63.9958 14.6667 64H49.3333C53.2219 63.9958 56.9499 62.4492 59.6996 59.6996C62.4492 56.9499 63.9958 53.2219 64 49.3333V14.6667C63.9958 10.7781 62.4492 7.05006 59.6996 4.30045C56.9499 1.55083 53.2219 0.00423512 49.3333 0V0ZM56 49.3333C56 51.1014 55.2976 52.7971 54.0474 54.0474C52.7971 55.2976 51.1014 56 49.3333 56H14.6667C12.8986 56 11.2029 55.2976 9.95262 54.0474C8.70238 52.7971 8 51.1014 8 49.3333V14.6667C8 12.8986 8.70238 11.2029 9.95262 9.95262C11.2029 8.70238 12.8986 8 14.6667 8H49.3333C51.1014 8 52.7971 8.70238 54.0474 9.95262C55.2976 11.2029 56 12.8986 56 14.6667V49.3333ZM50.6667 22.6667C50.6667 23.7275 50.2452 24.7449 49.4951 25.4951C48.7449 26.2452 47.7275 26.6667 46.6667 26.6667C45.6058 26.6667 44.5884 26.2452 43.8382 25.4951C43.0881 24.7449 42.6667 23.7275 42.6667 22.6667C42.6667 22.313 42.5262 21.9739 42.2761 21.7239C42.0261 21.4738 41.687 21.3333 41.3333 21.3333H36V42.6667C37.0609 42.6667 38.0783 43.0881 38.8284 43.8382C39.5786 44.5884 40 45.6058 40 46.6667C40 47.7275 39.5786 48.7449 38.8284 49.4951C38.0783 50.2452 37.0609 50.6667 36 50.6667H28C26.9391 50.6667 25.9217 50.2452 25.1716 49.4951C24.4214 48.7449 24 47.7275 24 46.6667C24 45.6058 24.4214 44.5884 25.1716 43.8382C25.9217 43.0881 26.9391 42.6667 28 42.6667V21.3333H22.6667C22.313 21.3333 21.9739 21.4738 21.7239 21.7239C21.4738 21.9739 21.3333 22.313 21.3333 22.6667C21.3333 23.7275 20.9119 24.7449 20.1618 25.4951C19.4116 26.2452 18.3942 26.6667 17.3333 26.6667C16.2725 26.6667 15.2551 26.2452 14.5049 25.4951C13.7548 24.7449 13.3333 23.7275 13.3333 22.6667C13.3333 20.1913 14.3167 17.8173 16.067 16.067C17.8173 14.3167 20.1913 13.3333 22.6667 13.3333H41.3333C43.8087 13.3333 46.1827 14.3167 47.933 16.067C49.6833 17.8173 50.6667 20.1913 50.6667 22.6667Z" fill="#363636"/>
</g>
<defs>
<clipPath id="clip0_13_1921">
<rect width="64" height="64" fill="white"/>
</clipPath>
</defs>
</svg>
