<svg width="46" height="40" viewBox="0 0 46 40" fill="none" xmlns="http://www.w3.org/2000/svg">
<path d="M26.8272 1.36879C28.5366 0.487386 30.4286 0.0186051 32.3518 0C35.839 0.134791 39.1306 1.64597 41.5059 4.20261C43.8812 6.75925 45.1466 10.153 45.0249 13.6406C45.0249 22.1756 36.2537 31.3125 28.8999 37.4756C27.1124 38.9786 24.8519 39.8027 22.5165 39.8027C20.1811 39.8027 17.9205 38.9786 16.1331 37.4756C8.7718 31.3125 0.0080497 22.1756 0.0080497 13.6406C-0.113685 10.1558 1.14939 6.76453 3.52108 4.20837C5.89277 1.65221 9.18012 0.139137 12.6643 0C14.5875 0.0186051 16.4795 0.487386 18.1889 1.36879C19.8983 2.25019 21.3776 3.5197 22.508 5.07563C23.6385 3.5197 25.1178 2.25019 26.8272 1.36879Z" fill="#D72E2E"/>
</svg>
